<svg width="22" height="22" viewBox="0 0 22 22" fill="none" xmlns="http://www.w3.org/2000/svg">
<g filter="url(#filter0_ii_1_984)">
<rect x="2" y="2" width="19" height="19" rx="2" fill="url(#paint0_linear_1_984)"/>
</g>
<rect x="1.5" y="1.5" width="20" height="20" rx="2.5" stroke="white"/>
<rect x="2.5" y="2.5" width="18" height="18" rx="1.5" stroke="url(#paint1_linear_1_984)" stroke-opacity="0.5" style="mix-blend-mode:color-burn"/>
<g filter="url(#filter1_f_1_984)">
<rect x="4" y="4" width="1" height="15" fill="url(#paint2_linear_1_984)"/>
<rect x="4" y="5" width="1" height="15" transform="rotate(-90 4 5)" fill="url(#paint3_linear_1_984)"/>
<rect x="3" y="3" width="2" height="2" fill="white"/>
</g>
<path d="M13 8.99951C13.5522 8.99951 13.9998 9.44739 14 9.99951V16.9995H6V9.99951C6.0002 9.44739 6.44784 8.99951 7 8.99951H13ZM7 10.9995V15.9995H13V10.9995H7Z" fill="white"/>
<path d="M16 6C16.552 6.00016 16.9998 6.44796 17 7V14H15V13H16V8H9V7C9.00018 6.44796 9.44796 6.00016 10 6H16Z" fill="white"/>
<defs>
<filter id="filter0_ii_1_984" x="-1" y="-2" width="31" height="26" filterUnits="userSpaceOnUse" color-interpolation-filters="sRGB">
<feFlood flood-opacity="0" result="BackgroundImageFix"/>
<feBlend mode="normal" in="SourceGraphic" in2="BackgroundImageFix" result="shape"/>
<feColorMatrix in="SourceAlpha" type="matrix" values="0 0 0 0 0 0 0 0 0 0 0 0 0 0 0 0 0 0 127 0" result="hardAlpha"/>
<feOffset dx="10" dy="2"/>
<feGaussianBlur stdDeviation="4"/>
<feComposite in2="hardAlpha" operator="arithmetic" k2="-1" k3="1"/>
<feColorMatrix type="matrix" values="0 0 0 0 1 0 0 0 0 1 0 0 0 0 1 0 0 0 0.33 0"/>
<feBlend mode="normal" in2="shape" result="effect1_innerShadow_1_984"/>
<feColorMatrix in="SourceAlpha" type="matrix" values="0 0 0 0 0 0 0 0 0 0 0 0 0 0 0 0 0 0 127 0" result="hardAlpha"/>
<feOffset dx="-2" dy="-3"/>
<feGaussianBlur stdDeviation="2.5"/>
<feComposite in2="hardAlpha" operator="arithmetic" k2="-1" k3="1"/>
<feColorMatrix type="matrix" values="0 0 0 0 0.0313726 0 0 0 0 0.266667 0 0 0 0 0.764706 0 0 0 1 0"/>
<feBlend mode="normal" in2="effect1_innerShadow_1_984" result="effect2_innerShadow_1_984"/>
</filter>
<filter id="filter1_f_1_984" x="0" y="0" width="22" height="22" filterUnits="userSpaceOnUse" color-interpolation-filters="sRGB">
<feFlood flood-opacity="0" result="BackgroundImageFix"/>
<feBlend mode="normal" in="SourceGraphic" in2="BackgroundImageFix" result="shape"/>
<feGaussianBlur stdDeviation="1.5" result="effect1_foregroundBlur_1_984"/>
</filter>
<linearGradient id="paint0_linear_1_984" x1="11.5" y1="2" x2="11.5" y2="21" gradientUnits="userSpaceOnUse">
<stop offset="0.33" stop-color="#245FF5"/>
<stop offset="0.66" stop-color="#256BF8"/>
</linearGradient>
<linearGradient id="paint1_linear_1_984" x1="2" y1="2" x2="21" y2="21" gradientUnits="userSpaceOnUse">
<stop stop-color="#004CFF"/>
<stop offset="0.5" stop-color="#0047EE"/>
<stop offset="1" stop-color="#00174E"/>
</linearGradient>
<linearGradient id="paint2_linear_1_984" x1="4.5" y1="4" x2="4.5" y2="19" gradientUnits="userSpaceOnUse">
<stop stop-color="white"/>
<stop offset="1" stop-color="white" stop-opacity="0"/>
</linearGradient>
<linearGradient id="paint3_linear_1_984" x1="4.5" y1="5" x2="4.5" y2="20" gradientUnits="userSpaceOnUse">
<stop stop-color="white"/>
<stop offset="1" stop-color="white" stop-opacity="0"/>
</linearGradient>
</defs>
</svg>
